<?xml version="1.0" encoding="UTF-8"?>
<svg version="1.1" xmlns="http://www.w3.org/2000/svg" width="940" height="788">
<path d="M0 0 C310.2 0 620.4 0 940 0 C940 260.04 940 520.08 940 788 C629.8 788 319.6 788 0 788 C0 527.96 0 267.92 0 0 Z " fill="#FEFEFE" transform="translate(0,0)"/>
<path d="M0 0 C1.43352212 0.00015908 2.86704998 0.00585132 4.30053711 0.01586914 C5.43041298 0.01799156 5.43041298 0.01799156 6.58311462 0.02015686 C8.99807646 0.02577163 11.41294687 0.03832656 13.82788086 0.05102539 C15.46134307 0.05603849 17.09480672 0.06060173 18.72827148 0.06469727 C22.74067671 0.07574585 26.75301326 0.09302033 30.76538086 0.11352539 C31.15077026 1.02062256 31.15077026 1.02062256 31.54394531 1.94604492 C32.71997993 4.71103651 33.89890503 7.47478671 35.07788086 10.23852539 C35.48200195 11.18985352 35.88612305 12.14118164 36.30249023 13.12133789 C38.3269736 17.86159162 40.3862929 22.54013301 42.76538086 27.11352539 C45.46635253 23.7373108 45.85574454 21.58238954 45.51538086 17.42602539 C45.33765892 11.78970113 47.37008147 8.45121197 50.74584961 4.05102539 C53.7613267 1.15803383 55.66542008 1.03152618 59.76538086 1.11352539 C60.09538086 0.78352539 60.42538086 0.45352539 60.76538086 0.11352539 C63.28632162 0.02504796 65.77968979 -0.00174762 68.30053711 0.01586914 C69.43041298 0.01799156 69.43041298 0.01799156 70.58311462 0.02015686 C72.99807646 0.02577163 75.41294687 0.03832656 77.82788086 0.05102539 C79.46134307 0.05603849 81.09480672 0.06060173 82.72827148 0.06469727 C86.74067671 0.07574585 90.75301326 0.09302033 94.76538086 0.11352539 C94.17145174 9.73167252 93.22358767 19.24043233 92.01538086 28.80102539 C91.65385911 31.71091771 91.29543763 34.62118903 90.93725586 37.53149414 C90.84307373 38.29464935 90.7488916 39.05780457 90.65185547 39.84408569 C89.58606549 48.51145939 88.58481394 57.18621437 87.58328247 65.86120605 C86.02024614 79.39361658 84.45190906 92.92550748 82.8293457 106.45092773 C82.58745637 108.47105596 82.34823848 110.49150352 82.10913086 112.51196289 C81.40837824 118.31906939 80.65887462 124.11605781 79.77709961 129.89868164 C79.63103271 130.85782471 79.48496582 131.81696777 79.33447266 132.80517578 C78.76538086 135.11352539 78.76538086 135.11352539 76.76538086 137.11352539 C71.67660141 138.93000724 66.99598961 139.38691156 61.64428711 139.30883789 C60.89952621 139.306008 60.15476532 139.3031781 59.38743591 139.30026245 C57.03407985 139.28916456 54.68111977 139.26408049 52.32788086 139.23852539 C50.72176661 139.22848211 49.11564632 139.21935863 47.50952148 139.21118164 C43.5946579 139.18925946 39.68008626 139.154803 35.76538086 139.11352539 C35.47418829 129.67821671 36.36868741 120.5143192 37.57788086 111.17602539 C37.76369515 109.71608812 37.94932161 108.25612693 38.13476562 106.79614258 C38.41299928 104.613834 38.6927942 102.43177211 38.97685242 100.25021362 C39.5310417 95.99359108 40.04370647 91.73484237 40.52319336 87.46899414 C40.74892592 85.60040411 40.9754185 83.73190564 41.20288086 81.86352539 C41.33110229 80.61647827 41.33110229 80.61647827 41.46191406 79.34423828 C42.15036429 74.03806568 43.51678289 71.65512494 47.76538086 68.11352539 C51.53241576 63.2701948 50.99082438 61.08453367 51.76538086 54.11352539 C44.34038086 65.00352539 44.34038086 65.00352539 36.76538086 76.11352539 C34.76538086 75.11352539 34.76538086 75.11352539 32.76538086 72.11352539 C31.77538086 73.10352539 30.78538086 74.09352539 29.76538086 75.11352539 C29.81178711 74.35168945 29.85819336 73.58985352 29.90600586 72.80493164 C29.94209961 71.77239258 29.97819336 70.73985352 30.01538086 69.67602539 C30.06178711 68.66668945 30.10819336 67.65735352 30.15600586 66.61743164 C29.63715393 61.96332979 27.83819993 58.27260063 25.76538086 54.11352539 C23.84902711 66.06170065 22.25480167 78.03531767 20.82788086 90.05102539 C19.49465486 101.25041526 18.09942662 112.4380341 16.57788086 123.61352539 C16.41102783 124.85996826 16.2441748 126.10641113 16.07226562 127.390625 C15.83721313 129.09424194 15.83721313 129.09424194 15.59741211 130.83227539 C15.46052979 131.83194336 15.32364746 132.83161133 15.18261719 133.86157227 C14.76538086 136.11352539 14.76538086 136.11352539 13.76538086 137.11352539 C11.43204753 137.44685872 9.09871419 137.78019206 6.76538086 138.11352539 C6.43538086 138.44352539 6.10538086 138.77352539 5.76538086 139.11352539 C3.24444009 139.20200282 0.75107193 139.22879841 -1.76977539 139.21118164 C-2.89965126 139.20905922 -2.89965126 139.20905922 -4.05235291 139.20689392 C-6.46731474 139.20127915 -8.88218515 139.18872422 -11.29711914 139.17602539 C-12.93058135 139.17101229 -14.564045 139.16644905 -16.19750977 139.16235352 C-20.20991499 139.15130493 -24.22225155 139.13403045 -28.23461914 139.11352539 C-28.44758991 131.85674356 -27.73229178 124.87821102 -26.81182861 117.68295288 C-26.53742902 115.53777063 -26.26982274 113.39182478 -26.00366211 111.24560547 C-25.61752219 108.13696571 -25.22866218 105.02868449 -24.83764648 101.9206543 C-23.93226087 94.71577362 -23.04733078 87.5083973 -22.16577148 80.30056763 C-21.96149093 78.6327448 -21.75657443 76.96499974 -21.55102539 75.29733276 C-20.18449259 64.20933369 -18.88910537 53.11523971 -17.65258789 42.01196289 C-17.38298678 39.60871353 -17.11329312 37.20547456 -16.84350586 34.80224609 C-16.31600955 30.10125709 -15.80004904 25.39917697 -15.28979492 20.69628906 C-15.04917929 18.54495483 -14.80815167 16.39366663 -14.56665039 14.24243164 C-14.4616069 13.24549286 -14.35656342 12.24855408 -14.24833679 11.22140503 C-14.14431046 10.31125641 -14.04028412 9.40110779 -13.93310547 8.46337891 C-13.80250481 7.26987572 -13.80250481 7.26987572 -13.66926575 6.05226135 C-13.23461914 4.11352539 -13.23461914 4.11352539 -11.23461914 2.11352539 C-8.9064395 1.74591808 -6.57278064 1.41110958 -4.23461914 1.11352539 C-3.23461914 0.11352539 -3.23461914 0.11352539 0 0 Z " fill="#191919" transform="translate(245.234619140625,287.886474609375)"/>
<path d="M0 0 C1.43352212 0.00015908 2.86704998 0.00585132 4.30053711 0.01586914 C5.43041298 0.01799156 5.43041298 0.01799156 6.58311462 0.02015686 C8.99807646 0.02577163 11.41294687 0.03832656 13.82788086 0.05102539 C15.46134307 0.05603849 17.09480672 0.06060173 18.72827148 0.06469727 C22.74067671 0.07574585 26.75301326 0.09302033 30.76538086 0.11352539 C33.79524236 6.02338264 36.65191664 11.93019707 39.07788086 18.11352539 C39.47330078 19.09385742 39.47330078 19.09385742 39.87670898 20.09399414 C41.76538086 24.85246614 41.76538086 24.85246614 41.76538086 27.11352539 C45.01341405 24.28459326 46.44769069 22.45529098 46.76538086 18.11352539 C46.54237305 17.35426758 46.31936523 16.59500977 46.08959961 15.81274414 C45.53015095 11.15516551 48.20642899 8.2008308 50.71069336 4.44946289 C52.79107103 2.08431869 53.58269672 1.35646249 56.64038086 0.98852539 C57.67163086 1.02977539 58.70288086 1.07102539 59.76538086 1.11352539 C60.09538086 0.78352539 60.42538086 0.45352539 60.76538086 0.11352539 C63.28632162 0.02504796 65.77968979 -0.00174762 68.30053711 0.01586914 C69.43041298 0.01799156 69.43041298 0.01799156 70.58311462 0.02015686 C72.99807646 0.02577163 75.41294687 0.03832656 77.82788086 0.05102539 C79.46134307 0.05603849 81.09480672 0.06060173 82.72827148 0.06469727 C86.74067671 0.07574585 90.75301326 0.09302033 94.76538086 0.11352539 C95.02014562 8.27189518 94.23091952 16.20948079 93.26538086 24.30102539 C93.09412389 25.7717152 92.92298648 27.24241893 92.75195312 28.71313477 C91.5073053 39.30904771 90.16895643 49.89323821 88.82397461 60.47680664 C88.73780003 61.15497122 88.65162544 61.8331358 88.56283951 62.53185081 C87.60581344 70.0588896 86.64277039 77.5851206 85.67163086 85.11035156 C85.33673307 87.71554246 85.00209451 90.32076669 84.66772461 92.92602539 C84.50488983 94.1893721 84.34205505 95.45271881 84.17428589 96.75434875 C83.3583553 103.15994707 82.59611752 109.56633924 81.92211914 115.98852539 C81.72411461 117.86640747 81.72411461 117.86640747 81.52210999 119.78222656 C81.27564784 122.15915639 81.03702492 124.53691599 80.80735779 126.91552734 C80.64458092 128.4927356 80.64458092 128.4927356 80.47851562 130.10180664 C80.34329247 131.48686401 80.34329247 131.48686401 80.20533752 132.89990234 C79.76538086 135.11352539 79.76538086 135.11352539 77.76538086 137.11352539 C75.43720122 137.4811327 73.10354236 137.8159412 70.76538086 138.11352539 C70.43538086 138.44352539 70.10538086 138.77352539 69.76538086 139.11352539 C67.3287764 139.21435303 64.92113385 139.25325142 62.48413086 139.24633789 C61.755448 139.24729462 61.02676514 139.24825134 60.27600098 139.24923706 C58.73258376 139.24991875 57.18916369 139.24806527 55.64575195 139.24389648 C53.27540686 139.23854801 50.90525127 139.24384181 48.53491211 139.25024414 C47.03881794 139.24958336 45.54272389 139.24830219 44.04663086 139.24633789 C43.33309448 139.24836212 42.61955811 139.25038635 41.88439941 139.25247192 C36.88033277 139.2284773 36.88033277 139.2284773 35.76538086 138.11352539 C35.958618 128.30374809 37.18826966 118.4917857 38.38500977 108.76171875 C38.6397497 106.68118023 38.88454916 104.59963124 39.12866211 102.51782227 C39.97158068 95.46961359 40.95022098 88.44322268 42.14428711 81.44555664 C42.35641846 80.1781665 42.5685498 78.91077637 42.78710938 77.60498047 C44.15319574 72.72941244 46.77288414 69.51420032 49.95678711 65.66430664 C52.71594158 61.77288576 53.35908089 57.79613255 53.76538086 53.11352539 C53.10538086 53.11352539 52.44538086 53.11352539 51.76538086 53.11352539 C51.53592773 53.79286133 51.30647461 54.47219727 51.07006836 55.17211914 C49.43152842 58.86619271 47.26010653 61.9185162 44.89038086 65.17602539 C44.4559668 65.78768555 44.02155273 66.3993457 43.57397461 67.02954102 C41.19057634 70.33981638 38.76157956 73.31939591 35.76538086 76.11352539 C35.43538086 74.79352539 35.10538086 73.47352539 34.76538086 72.11352539 C32.78538086 73.10352539 32.78538086 73.10352539 30.76538086 74.11352539 C30.70930664 72.97077148 30.70930664 72.97077148 30.65209961 71.80493164 C30.22689674 65.12674538 29.26152762 59.33034373 26.76538086 53.11352539 C26.10538086 53.11352539 25.44538086 53.11352539 24.76538086 53.11352539 C24.81178711 54.24016602 24.85819336 55.36680664 24.90600586 56.52758789 C24.90000317 64.23804541 23.57737645 71.86767008 22.51538086 79.48852539 C22.05107349 82.87592191 21.59228273 86.26403773 21.13647461 89.65258789 C21.02055466 90.51335937 20.9046347 91.37413086 20.78520203 92.26098633 C19.98519723 98.27452799 19.27151183 104.29386885 18.61303711 110.32446289 C18.52414215 111.13430634 18.43524719 111.94414978 18.34365845 112.77853394 C17.92017515 116.65773534 17.50848982 120.53782192 17.11010742 124.41967773 C16.9602995 125.81244631 16.81024825 127.20518874 16.65991211 128.59790039 C16.47199097 130.4188623 16.47199097 130.4188623 16.28027344 132.27661133 C15.76538086 135.11352539 15.76538086 135.11352539 13.76538086 137.11352539 C11.43720122 137.4811327 9.10354236 137.8159412 6.76538086 138.11352539 C6.43538086 138.44352539 6.10538086 138.77352539 5.76538086 139.11352539 C3.31707659 139.20196332 0.89717487 139.22881291 -1.55102539 139.21118164 C-2.28207993 139.20976669 -3.01313446 139.20835175 -3.76634216 139.20689392 C-6.10997546 139.20127947 -8.45351453 139.18872461 -10.79711914 139.17602539 C-12.38240422 139.17101225 -13.9676908 139.16644902 -15.55297852 139.16235352 C-19.44689524 139.15130536 -23.3407412 139.13403111 -27.23461914 139.11352539 C-28.25160207 135.12503104 -28.15700979 131.91856728 -27.63305664 127.84790039 C-27.39631226 125.9570874 -27.39631226 125.9570874 -27.15478516 124.02807617 C-26.97307736 122.63989072 -26.79135486 121.25170719 -26.60961914 119.86352539 C-26.42377523 118.39602421 -26.23881999 116.92841026 -26.0546875 115.46069336 C-25.65927316 112.31490216 -25.26002446 109.16963102 -24.8581543 106.0246582 C-23.91401411 98.61502978 -23.01097255 91.20036927 -22.1076355 83.78567505 C-21.7954517 81.22484746 -21.48199206 78.66417809 -21.16845703 76.10351562 C-20.04222089 66.88482777 -18.94235836 57.66347031 -17.87524414 48.43774414 C-17.76345322 47.47151123 -17.65166229 46.50527832 -17.53648376 45.50976562 C-16.998959 40.85674577 -16.46449698 36.2033961 -15.93408203 31.54956055 C-12.73672369 3.61562994 -12.73672369 3.61562994 -11.23461914 2.11352539 C-7.73461914 1.61352539 -7.73461914 1.61352539 -4.23461914 1.11352539 C-3.23461914 0.11352539 -3.23461914 0.11352539 0 0 Z " fill="#1A1919" transform="translate(366.234619140625,287.886474609375)"/>
<path d="M0 0 C0.93509903 -0.00637985 1.87019806 -0.0127597 2.83363342 -0.01933289 C3.85331711 -0.02044571 4.87300079 -0.02155853 5.92358398 -0.02270508 C6.9686058 -0.02603348 8.01362762 -0.02936188 9.09031677 -0.03279114 C11.31053221 -0.0378677 13.53075532 -0.04019924 15.75097656 -0.04003906 C19.13090874 -0.04221141 22.51050713 -0.06032017 25.89038086 -0.0793457 C28.04728079 -0.08228239 30.20418226 -0.08426534 32.36108398 -0.08520508 C33.36659805 -0.09239059 34.37211212 -0.09957611 35.40809631 -0.10697937 C46.23674805 -0.07217264 56.62549456 2.37362479 64.60717773 10.14526367 C74.82597673 23.47302396 73.40234476 37.33747988 71.35717773 53.20776367 C70.93271906 56.34533358 70.50123256 59.48188762 70.0690918 62.6184082 C69.56258616 66.48573404 69.12218738 70.35864498 68.69311523 74.23510742 C64.43489192 112.24987627 64.43489192 112.24987627 53.60717773 123.14526367 C52.98842773 123.77819336 52.36967773 124.41112305 51.73217773 125.06323242 C36.76073055 139.21970164 16.94332897 139.75825776 -2.47998047 139.50195312 C-5.87620735 139.45715847 -9.2717246 139.44039284 -12.66821289 139.4284668 C-14.8251243 139.41506909 -16.98202694 139.40015351 -19.13891602 139.38354492 C-20.15537704 139.37615799 -21.17183807 139.36877106 -22.21910095 139.36116028 C-23.1483992 139.34832504 -24.07769745 139.33548981 -25.03515625 139.32226562 C-26.26515602 139.30749931 -26.26515602 139.30749931 -27.52000427 139.29243469 C-29.39282227 139.14526367 -29.39282227 139.14526367 -30.39282227 138.14526367 C-30.18370157 129.18599934 -28.81858995 120.25786745 -27.58032227 111.39526367 C-27.21678401 108.72749301 -26.85439079 106.05960351 -26.49438477 103.39135742 C-26.40224197 102.70941818 -26.31009918 102.02747894 -26.21516418 101.32487488 C-25.23617481 94.04311488 -24.33522903 86.75211168 -23.45532227 79.45776367 C-23.37537018 78.79572937 -23.29541809 78.13369507 -23.21304321 77.45159912 C-22.15189681 68.64518201 -21.12143343 59.83525585 -20.09985352 51.02416992 C-19.98926102 50.07063126 -19.87866852 49.11709259 -19.76472473 48.13465881 C-19.22168061 43.44877942 -18.68063442 38.76268269 -18.14306641 34.07617188 C-17.66049882 29.87709337 -17.16911247 25.67914648 -16.66955566 21.48205566 C-16.48633702 19.93492089 -16.305717 18.38747597 -16.12780762 16.83972168 C-15.8834408 14.7243092 -15.62805742 12.6105301 -15.36938477 10.49682617 C-15.22839355 9.31169434 -15.08740234 8.1265625 -14.94213867 6.90551758 C-14.39282227 4.14526367 -14.39282227 4.14526367 -12.39282227 2.14526367 C-10.06464263 1.77765636 -7.73098377 1.44284786 -5.39282227 1.14526367 C-3.80968689 -0.43787171 -2.19598097 0.01012947 0 0 Z " fill="#191919" transform="translate(551.392822265625,287.854736328125)"/>
<path d="M0 0 C0.84477905 0.00202423 1.68955811 0.00404846 2.55993652 0.00613403 C3.42179565 0.00517731 4.28365479 0.00422058 5.17163086 0.00323486 C6.99751864 0.00255304 8.82340884 0.00440749 10.64929199 0.00857544 C13.45419731 0.01392367 16.25894248 0.00863054 19.06384277 0.00222778 C20.83337438 0.00288856 22.60290588 0.00416973 24.37243652 0.00613403 C25.21721558 0.0041098 26.06199463 0.00208557 26.93237305 0 C32.85123621 0.02399622 32.85123621 0.02399622 33.96618652 1.13894653 C34.27370648 3.52743596 34.51871493 5.89732161 34.72790527 8.29519653 C34.79905045 9.07198761 34.87019562 9.84877869 34.9434967 10.64910889 C35.18543062 13.31194739 35.41994294 15.9753772 35.65368652 18.63894653 C35.73622681 19.56656799 35.81876709 20.49418945 35.90380859 21.44992065 C36.48849863 28.0215442 37.05922064 34.59431965 37.62457275 41.16763306 C37.86340862 43.94413737 38.10280639 46.72058826 38.34295654 49.49697876 C39.17506525 59.12251263 39.99538096 68.74897889 40.80422974 78.37649536 C41.07634749 81.61325754 41.35169892 84.84971908 41.62985229 88.08596802 C44.76336424 124.61592292 44.76336424 124.61592292 43.96618652 136.13894653 C42.0334807 138.07165236 38.57977264 137.76557709 35.96618652 138.13894653 C35.63618652 138.46894653 35.30618652 138.79894653 34.96618652 139.13894653 C32.45694499 139.23981865 29.97582269 139.27866686 27.46618652 139.27175903 C26.71530762 139.27271576 25.96442871 139.27367249 25.1907959 139.2746582 C23.60030026 139.27533991 22.00980185 139.27348625 20.41931152 139.26931763 C17.97653998 139.2639692 15.53395231 139.26926287 13.09118652 139.27566528 C11.54951945 139.2750045 10.00785249 139.27372333 8.46618652 139.27175903 C7.73077637 139.27378326 6.99536621 139.2758075 6.2376709 139.27789307 C1.08113813 139.25389814 1.08113813 139.25389814 -0.03381348 138.13894653 C-0.12013222 136.7962724 -0.14087821 135.44920331 -0.13146973 134.10379028 C-0.12824707 133.29490356 -0.12502441 132.48601685 -0.1217041 131.65261841 C-0.10913574 130.37741333 -0.10913574 130.37741333 -0.09631348 129.07644653 C-0.09180176 128.22244263 -0.08729004 127.36843872 -0.0826416 126.48855591 C-0.07081721 124.3719899 -0.05288116 122.25545968 -0.03381348 120.13894653 C-1.35381348 120.13894653 -2.67381348 120.13894653 -4.03381348 120.13894653 C-4.03381348 119.47894653 -4.03381348 118.81894653 -4.03381348 118.13894653 C-7.49881348 118.63394653 -7.49881348 118.63394653 -11.03381348 119.13894653 C-11.29936035 120.27074341 -11.56490723 121.40254028 -11.83850098 122.56863403 C-12.19489788 124.05049485 -12.55168923 125.53226084 -12.90881348 127.01394653 C-13.08283691 127.76031372 -13.25686035 128.50668091 -13.43615723 129.27566528 C-14.80725098 134.91238403 -14.80725098 134.91238403 -17.03381348 137.13894653 C-19.36199311 137.50655384 -21.69565198 137.84136234 -24.03381348 138.13894653 C-24.36381348 138.46894653 -24.69381348 138.79894653 -25.03381348 139.13894653 C-27.48211774 139.22738446 -29.90201946 139.25423405 -32.35021973 139.23660278 C-33.08127426 139.23518784 -33.8123288 139.23377289 -34.5655365 139.23231506 C-36.9091698 139.22670062 -39.25270887 139.21414575 -41.59631348 139.20144653 C-43.18159856 139.19643339 -44.76688513 139.19187016 -46.35217285 139.18777466 C-50.24608958 139.1767265 -54.13993553 139.15945225 -58.03381348 139.13894653 C-57.49752759 132.55729357 -56.21699209 126.80387881 -54.11975098 120.55691528 C-53.82702301 119.66265335 -53.53429504 118.76839142 -53.23269653 117.84703064 C-52.29958069 115.00406643 -51.35422377 112.16534259 -50.40881348 109.32644653 C-49.79737436 107.46536859 -49.18669175 105.60404193 -48.57678223 103.74246216 C-45.61302805 94.72964673 -42.55948136 85.75556397 -39.38537598 76.81472778 C-37.02633872 70.15752555 -34.89694332 63.47715762 -32.95649719 56.68717957 C-30.48595888 48.1051489 -27.62588592 39.65195484 -24.78503418 31.1867981 C-23.83381906 28.35170701 -22.88759415 25.51498482 -21.9420166 22.67800903 C-21.33357837 20.85760101 -20.72486483 19.03728497 -20.11584473 17.21707153 C-19.69550713 15.95772797 -19.69550713 15.95772797 -19.26667786 14.67294312 C-15.57146244 3.6765955 -15.57146244 3.6765955 -14.03381348 2.13894653 C-11.70048014 1.8056132 -9.36714681 1.47227987 -7.03381348 1.13894653 C-5.16418629 -0.73068065 -2.48717787 0.0100835 0 0 Z " fill="#1A1919" transform="translate(159.0338134765625,287.8610534667969)"/>
<path d="M0 0 C12.54 0 25.08 0 38 0 C38.33 23.76 38.66 47.52 39 72 C44.30120843 49.58615025 44.30120843 49.58615025 45.75 27.375 C45.75192436 24.42431543 45.7698388 21.47399321 45.796875 18.5234375 C45.80174927 17.84545105 45.80662354 17.1674646 45.81164551 16.46893311 C45.98877293 5.01122707 45.98877293 5.01122707 49 2 C51.33333333 1.66666667 53.66666667 1.33333333 56 1 C56.33 0.67 56.66 0.34 57 0 C59.6662603 -0.08855161 62.30647114 -0.11524673 64.97265625 -0.09765625 C65.77029892 -0.0962413 66.56794159 -0.09482635 67.38975525 -0.09336853 C69.94737435 -0.08775316 72.50490718 -0.07519812 75.0625 -0.0625 C76.79231645 -0.05748698 78.52213426 -0.05292373 80.25195312 -0.04882812 C84.50133553 -0.03777875 88.75065312 -0.02050386 93 0 C91.7296638 10.8706945 87.78171764 20.98474533 84.1875 31.25 C83.56369716 33.04791497 82.94064528 34.84609068 82.31835938 36.64453125 C81.40288611 39.2894672 80.48702099 41.93425769 79.56881714 44.57824707 C76.30529937 53.97905493 73.07677343 63.38772806 70.1953125 72.9140625 C66.98141356 83.47309328 63.38467461 93.91157758 59.875 104.375 C58.4331391 108.67389335 56.99331025 112.97345957 55.5546875 117.2734375 C55.22757782 118.2464682 54.90046814 119.2194989 54.56344604 120.22201538 C53.25110666 124.14492559 51.96413627 128.04655591 50.90283203 132.04541016 C50 135 50 135 48 137 C45.67182036 137.36760731 43.3381615 137.70241581 41 138 C40.67 138.33 40.34 138.66 40 139 C37.27275721 139.10099488 34.57137477 139.13970529 31.84375 139.1328125 C30.61754944 139.13424759 30.61754944 139.13424759 29.36657715 139.13571167 C27.63484622 139.13639345 25.90311276 139.13453929 24.17138672 139.13037109 C21.51133518 139.12502279 18.8514525 139.13031612 16.19140625 139.13671875 C14.51302046 139.13605797 12.83463477 139.1347768 11.15625 139.1328125 C10.35521851 139.13483673 9.55418701 139.13686096 8.72888184 139.13894653 C3.11495079 139.11495079 3.11495079 139.11495079 2 138 C1.78438045 136.29631277 1.63291919 134.58446886 1.50683594 132.87182617 C1.42276993 131.76207428 1.33870392 130.65232239 1.25209045 129.50894165 C1.16374435 128.28267059 1.07539825 127.05639954 0.984375 125.79296875 C0.836894 123.82938308 0.68940853 121.86579774 0.541749 119.90222549 C0.38372827 117.79033253 0.22786282 115.67829015 0.07260132 113.56619263 C-0.47127148 106.1709621 -1.03046934 98.77688393 -1.58984375 91.3828125 C-1.64700247 90.6253303 -1.70416119 89.86784809 -1.76305199 89.08741188 C-2.60478339 77.94703128 -3.49827185 66.81193176 -4.44140625 55.6796875 C-4.49954624 54.99204378 -4.55768623 54.30440006 -4.61758804 53.59591866 C-5.22888558 46.37012976 -5.848659 39.14510452 -6.47558594 31.9206543 C-6.67781858 29.5525788 -6.87997139 27.18449649 -7.08203125 24.81640625 C-7.1755336 23.7618222 -7.26903595 22.70723816 -7.3653717 21.62069702 C-8.42500377 9.1160114 -8.42500377 9.1160114 -8 3 C-7 2 -7 2 -3.4375 1.9375 C-2.303125 1.958125 -1.16875 1.97875 0 2 C0 1.34 0 0.68 0 0 Z " fill="#191919" transform="translate(748,288)"/>
<path d="M0 0 C1.31238144 0.00222061 2.62476288 0.00444122 3.97691345 0.00672913 C4.6988237 0.0065831 5.42073395 0.00643707 6.16452026 0.00628662 C8.56156879 0.00698583 10.95854054 0.01477857 13.35557556 0.02259827 C15.0132442 0.02446242 16.67091338 0.02588633 18.32858276 0.02688599 C22.69996145 0.03071139 27.07130712 0.04054186 31.44267273 0.05158997 C35.89996392 0.0618036 40.35726043 0.0663835 44.81455994 0.07142639 C53.56652824 0.08216412 62.31846968 0.0992408 71.07041931 0.12025452 C71.08732503 2.01451038 71.09929684 3.90881063 71.10923767 5.80311584 C71.11644333 6.85799698 71.12364899 7.91287811 71.131073 8.99972534 C71.04632876 13.35967223 70.42013811 17.52748115 69.63291931 21.80775452 C69.49821228 22.60375061 69.36350525 23.3997467 69.22471619 24.21986389 C68.21752238 29.97315145 68.21752238 29.97315145 67.07041931 31.12025452 C64.73708598 31.45358785 62.40375264 31.78692118 60.07041931 32.12025452 C59.74041931 32.45025452 59.41041931 32.78025452 59.07041931 33.12025452 C57.28970685 33.20751675 55.50558791 33.22724493 53.72276306 33.21791077 C52.64317322 33.21468811 51.56358337 33.21146545 50.45127869 33.20814514 C49.31497009 33.19976624 48.1786615 33.19138733 47.00791931 33.18275452 C45.86774353 33.1782428 44.72756775 33.17373108 43.55284119 33.16908264 C40.7253158 33.15725199 37.89789291 33.14076861 35.07041931 33.12025452 C35.07041931 32.46025452 35.07041931 31.80025452 35.07041931 31.12025452 C32.76041931 31.45025452 30.45041931 31.78025452 28.07041931 32.12025452 C27.93764587 33.39642639 27.80487244 34.67259827 27.66807556 35.98744202 C27.48989266 37.65673448 27.31149617 39.32600415 27.13291931 40.99525452 C27.04590759 41.83701233 26.95889587 42.67877014 26.86924744 43.54603577 C26.78223572 44.35169983 26.695224 45.15736389 26.60557556 45.98744202 C26.52702332 46.73106995 26.44847107 47.47469788 26.36753845 48.24085999 C26.07041931 50.12025452 26.07041931 50.12025452 25.07041931 52.12025452 C25.70133484 52.1150177 26.33225037 52.10978088 26.98228455 52.10438538 C29.82415278 52.08367625 32.66600519 52.07061386 35.50791931 52.05775452 C36.9977533 52.04518616 36.9977533 52.04518616 38.51768494 52.03236389 C39.46192322 52.02914124 40.4061615 52.02591858 41.37901306 52.02259827 C42.2535614 52.01736145 43.12810974 52.01212463 44.02915955 52.00672913 C46.07041931 52.12025452 46.07041931 52.12025452 47.07041931 53.12025452 C48.04815958 63.17969762 46.11892318 73.30229555 44.07041931 83.12025452 C42.13771349 85.05296034 38.68400543 84.74688507 36.07041931 85.12025452 C35.74041931 85.45025452 35.41041931 85.78025452 35.07041931 86.12025452 C33.07083567 86.16106235 31.06996677 86.16279808 29.07041931 86.12025452 C29.07041931 85.46025452 29.07041931 84.80025452 29.07041931 84.12025452 C26.43041931 84.12025452 23.79041931 84.12025452 21.07041931 84.12025452 C20.97954041 85.6400592 20.97954041 85.6400592 20.88682556 87.19056702 C20.80235227 88.54213966 20.71770774 89.89370161 20.63291931 91.24525452 C20.59360291 91.91041077 20.5542865 92.57556702 20.51377869 93.26087952 C20.25804514 97.27392901 19.75962453 101.16161673 19.07041931 105.12025452 C20.78140808 105.10454407 20.78140808 105.10454407 22.52696228 105.08851624 C26.74991225 105.05237735 30.9728485 105.0293764 35.19590759 105.01039124 C37.02535804 105.00031967 38.85479234 104.98666176 40.68418884 104.96937561 C43.31036865 104.94517775 45.93633606 104.9337832 48.56260681 104.92494202 C49.38348785 104.91461945 50.2043689 104.90429688 51.05012512 104.8936615 C53.05831073 104.89326267 55.06597313 104.99775912 57.07041931 105.12025452 C57.73041931 105.78025452 58.39041931 106.44025452 59.07041931 107.12025452 C59.05381775 109.56288147 59.05381775 109.56288147 58.67979431 112.60853577 C58.54702087 113.70746155 58.41424744 114.80638733 58.27745056 115.93861389 C58.05122009 117.6682135 58.05122009 117.6682135 57.82041931 119.43275452 C57.68506775 120.57421936 57.54971619 121.7156842 57.41026306 122.89173889 C56.7755198 127.96671892 56.15106968 132.41291781 54.07041931 137.12025452 C52.93604431 137.26462952 51.80166931 137.40900452 50.63291931 137.55775452 C47.2626473 137.73196929 47.2626473 137.73196929 46.07041931 139.12025452 C43.77530435 139.21996607 41.47707382 139.24825318 39.17979431 139.24964905 C38.45949036 139.25140137 37.7391864 139.25315369 36.99705505 139.25495911 C34.60481897 139.2593774 32.21265621 139.25643973 29.82041931 139.25306702 C28.16514573 139.25374006 26.50987224 139.25471009 24.854599 139.25596619 C21.38095664 139.25744313 17.90733995 139.25528872 14.43370056 139.25062561 C9.97109433 139.24492832 5.50854824 139.24820734 1.04594421 139.25419807 C-2.37343299 139.25780379 -5.79279583 139.25666505 -9.21217346 139.25407028 C-10.85808825 139.25340104 -12.50400432 139.25422933 -14.1499176 139.25654984 C-16.446299 139.25907654 -18.74258168 139.25523555 -21.03895569 139.24964905 C-23.00300354 139.24845566 -23.00300354 139.24845566 -25.00672913 139.24723816 C-27.92958069 139.12025452 -27.92958069 139.12025452 -28.92958069 138.12025452 C-28.72046 129.16099018 -27.35534837 120.2328583 -26.11708069 111.37025452 C-25.75354244 108.70248385 -25.39114922 106.03459436 -25.03114319 103.36634827 C-24.9390004 102.68440903 -24.8468576 102.00246979 -24.75192261 101.29986572 C-23.77293323 94.01810573 -22.87198746 86.72710252 -21.99208069 79.43275452 C-21.9121286 78.77072021 -21.83217651 78.10868591 -21.74980164 77.42658997 C-20.68865523 68.62017286 -19.65819186 59.81024669 -18.63661194 50.99916077 C-18.52601944 50.0456221 -18.41542694 49.09208344 -18.30148315 48.10964966 C-17.75843904 43.42377027 -17.21739284 38.73767354 -16.67982483 34.05116272 C-16.19725725 29.85208422 -15.70587089 25.65413733 -15.20631409 21.45704651 C-15.02309544 19.90991173 -14.84247543 18.36246681 -14.66456604 16.81471252 C-14.42019923 14.69930004 -14.16481585 12.58552095 -13.90614319 10.47181702 C-13.76515198 9.28668518 -13.62416077 8.10155334 -13.47889709 6.88050842 C-12.92958069 4.12025452 -12.92958069 4.12025452 -10.92958069 2.12025452 C-8.60140105 1.75264721 -6.26774219 1.41783871 -3.92958069 1.12025452 C-2.92958069 0.12025452 -2.92958069 0.12025452 0 0 Z " fill="#1B1A1A" transform="translate(655.9295806884766,287.87974548339844)"/>
<path d="M0 0 C3.95980159 2.99005426 5.79034013 5.39757336 6.49609375 10.36328125 C6.50530622 18.0556952 6.18866246 24.14255862 0.58984375 29.80078125 C-6.78822036 35.71369788 -15.80677253 36.90912557 -25.0078125 36.66015625 C-28.97599821 36.18926488 -31.113033 35.136967 -33.9375 32.3125 C-38.15606041 26.82837147 -37.67900392 19.91019961 -36.9375 13.3125 C-35.375 9.875 -35.375 9.875 -32.9375 7.3125 C-32.47472656 6.79171875 -32.01195312 6.2709375 -31.53515625 5.734375 C-24.24861738 -1.60561036 -9.43892082 -4.85768728 0 0 Z " fill="#1A1A1A" transform="translate(499.9375,391.6875)"/>
<path d="M0 0 C0.94875 0.04125 1.8975 0.0825 2.875 0.125 C3.11071396 8.13054438 2.19465622 15.88091205 1.1875 23.8125 C1.00748707 25.26232942 0.8278077 26.71220029 0.6484375 28.16210938 C-0.81922061 39.95862158 -2.38159501 51.74284666 -3.94335938 63.52719116 C-5.3578714 74.20504846 -6.75045648 84.88499722 -8.06103516 95.57617188 C-8.2989486 97.51458902 -8.54000453 99.45261972 -8.78125 101.390625 C-10.14426868 112.62663989 -11.09863626 123.83499883 -12.125 135.125 C9.985 135.125 32.095 135.125 54.875 135.125 C54.545 135.785 54.215 136.445 53.875 137.125 C44.24387288 137.14812465 34.61275526 137.16591571 24.98160648 137.17681217 C20.50994451 137.18204074 16.03830147 137.18913789 11.56665039 137.20043945 C7.25488027 137.21126929 2.94312841 137.21727704 -1.36865425 137.21987724 C-3.01736298 137.22173132 -4.66607066 137.2253516 -6.31477165 137.23073006 C-8.61603872 137.23794178 -10.9172294 137.23899089 -13.21850586 137.23852539 C-14.5308873 137.240746 -15.84326874 137.24296661 -17.19541931 137.24525452 C-20.125 137.125 -20.125 137.125 -21.125 136.125 C-20.91587931 127.16573567 -19.55076768 118.23760378 -18.3125 109.375 C-17.94896175 106.70722933 -17.58656853 104.03933984 -17.2265625 101.37109375 C-17.13441971 100.68915451 -17.04227692 100.00721527 -16.94734192 99.30461121 C-15.96835254 92.02285121 -15.06740677 84.731848 -14.1875 77.4375 C-14.10754791 76.7754657 -14.02759583 76.1134314 -13.94522095 75.43133545 C-12.88407454 66.62491834 -11.85361117 57.81499217 -10.83203125 49.00390625 C-10.72143875 48.05036758 -10.61084625 47.09682892 -10.49690247 46.11439514 C-9.95385835 41.42851575 -9.41281215 36.74241902 -8.87524414 32.0559082 C-8.39267656 27.8568297 -7.9012902 23.65888281 -7.4017334 19.46179199 C-7.21851475 17.91465722 -7.03789474 16.3672123 -6.85998535 14.81945801 C-6.61561854 12.70404552 -6.36023516 10.59026643 -6.1015625 8.4765625 C-5.96057129 7.29143066 -5.81958008 6.10629883 -5.67431641 4.88525391 C-4.87931444 0.89045738 -4.08936968 0.16357479 0 0 Z " fill="#FB0505" transform="translate(648.125,289.875)"/>
<path d="M0 0 C1.28005417 -0.00143509 1.28005417 -0.00143509 2.58596802 -0.00289917 C4.37599766 -0.00357585 6.16602984 -0.0017575 7.95605469 0.00244141 C10.70773731 0.00783686 13.45925964 0.00245884 16.2109375 -0.00390625 C17.95312536 -0.00324616 19.69531312 -0.00196642 21.4375 0 C22.67643509 -0.00303635 22.67643509 -0.00303635 23.94039917 -0.00613403 C29.70533516 0.01783516 29.70533516 0.01783516 30.8203125 1.1328125 C31.03445329 2.55491731 31.18676809 3.98640096 31.31347656 5.41894531 C31.39754257 6.34540863 31.48160858 7.27187195 31.56822205 8.22640991 C31.65656815 9.25255402 31.74491425 10.27869812 31.8359375 11.3359375 C31.93205826 12.41243561 32.02817902 13.48893372 32.12721252 14.59805298 C32.44654059 18.19255412 32.75880352 21.7876258 33.0703125 25.3828125 C33.28986906 27.88949344 33.50951562 30.3961665 33.72924805 32.90283203 C34.2532008 38.90284685 34.77116867 44.90335217 35.28560734 50.90418816 C35.64248607 55.06650564 36.00152378 59.2286285 36.36247826 63.39059448 C37.01712133 70.93956712 37.66198188 78.48930916 38.29748535 86.03991699 C38.51879822 88.658692 38.74246354 91.2772694 38.96862793 93.89562988 C41.53365246 123.68378309 41.53365246 123.68378309 40.8203125 136.1328125 C39.8203125 137.1328125 39.8203125 137.1328125 36.2578125 137.1953125 C35.1234375 137.1746875 33.9890625 137.1540625 32.8203125 137.1328125 C32.74841705 136.11827499 32.67652161 135.10373749 32.60244751 134.05845642 C30.73791 107.82987881 28.66223883 81.62430113 26.42767334 55.42480469 C26.11187043 51.71513672 25.79845159 48.00526881 25.48506737 44.29539585 C25.10560335 39.80492073 24.72469999 35.31456801 24.34375 30.82421875 C24.23829927 29.57878894 24.23829927 29.57878894 24.13071823 28.30819893 C23.93088229 25.9509211 23.73000411 23.5937344 23.52880859 21.23657227 C23.44308846 20.22295372 23.44308846 20.22295372 23.3556366 19.18885803 C22.89647636 13.82988062 22.35568321 8.48651965 21.8203125 3.1328125 C9.2803125 2.8028125 -3.2596875 2.4728125 -16.1796875 2.1328125 C-16.1796875 1.8028125 -16.1796875 1.4728125 -16.1796875 1.1328125 C-10.7428738 0.21926813 -5.5074027 -0.01369882 0 0 Z " fill="#06FAFA" transform="translate(170.1796875,285.8671875)"/>
<path d="M0 0 C1.06014313 -0.0033284 2.12028625 -0.0066568 3.21255493 -0.01008606 C5.44996712 -0.01513709 7.6873868 -0.01749495 9.92480469 -0.01733398 C13.33280955 -0.01951923 16.74048988 -0.03769118 20.1484375 -0.05664062 C22.3281239 -0.05957524 24.50781183 -0.06155958 26.6875 -0.0625 C27.69920258 -0.06968552 28.71090515 -0.07687103 29.75326538 -0.08427429 C41.42699571 -0.04690279 51.46578874 2.8463233 59.9765625 11.16796875 C72.38136276 27.76497298 66.33146001 50.17515614 63.83325195 69.28051758 C63.37509943 72.78872986 62.94249421 76.29957584 62.51643085 79.81181049 C62.1791523 82.56150428 61.82594494 85.30898659 61.46840477 88.05611229 C61.22313424 89.96667043 60.99269097 91.87911396 60.76277161 93.7915802 C58.85371215 107.95536594 54.05535657 119.09338951 42.60546875 128.015625 C40.4402575 129.50169748 38.25386669 130.86174144 35.9765625 132.16796875 C34.8834375 132.80734375 33.7903125 133.44671875 32.6640625 134.10546875 C29.70190714 135.27655343 28.89763662 135.07107269 25.9765625 134.16796875 C26.92015625 133.67490234 26.92015625 133.67490234 27.8828125 133.171875 C38.03773677 127.52855112 45.167345 119.91757023 48.74240112 108.78268433 C50.68461569 101.92230319 51.78236893 95.19414012 52.546875 88.11328125 C52.67343475 87.00870575 52.79999451 85.90413025 52.9303894 84.76608276 C53.32884294 81.27590149 53.71570036 77.78456236 54.1015625 74.29296875 C54.49683997 70.78024718 54.89453892 67.26781483 55.29415894 63.75558472 C55.54093681 61.58008331 55.78481728 59.40425075 56.02542114 57.22805786 C56.13578705 56.24288177 56.24615295 55.25770569 56.35986328 54.24267578 C56.45518341 53.38094757 56.55050354 52.51921936 56.64871216 51.63137817 C56.87337461 49.94330428 57.16072086 48.26273902 57.50021362 46.59396362 C59.33835972 37.23247833 59.31277453 26.31573336 53.9765625 18.16796875 C53.00455119 16.81409586 52.01772091 15.46941677 50.9765625 14.16796875 C50.9765625 13.50796875 50.9765625 12.84796875 50.9765625 12.16796875 C50.4609375 11.92046875 49.9453125 11.67296875 49.4140625 11.41796875 C47.39660252 10.38337389 45.43988523 9.29951819 43.4765625 8.16796875 C42.86941406 7.82121094 42.26226563 7.47445313 41.63671875 7.1171875 C40.39464875 6.40701571 39.15399357 5.69436846 37.9140625 4.98046875 C32.05120885 2.5218527 25.35534794 2.95625189 19.109375 2.8515625 C18.07465057 2.8307814 17.03992615 2.81000031 15.97384644 2.78858948 C12.68314976 2.72344055 9.39237633 2.66437066 6.1015625 2.60546875 C3.86457554 2.56225055 1.62759621 2.51863522 -0.609375 2.47460938 C-6.08064908 2.36779486 -11.55199876 2.26596538 -17.0234375 2.16796875 C-17.0234375 1.83796875 -17.0234375 1.50796875 -17.0234375 1.16796875 C-11.34784749 -0.03418189 -5.7724391 0.00632409 0 0 Z " fill="#07F8F8" transform="translate(565.0234375,285.83203125)"/>
<path d="M0 0 C0.94875 0.04125 1.8975 0.0825 2.875 0.125 C3.11071396 8.13054438 2.19465622 15.88091205 1.1875 23.8125 C1.00748707 25.26232942 0.8278077 26.71220029 0.6484375 28.16210938 C-0.81922061 39.95862158 -2.38159501 51.74284666 -3.94335938 63.52719116 C-5.3578714 74.20504846 -6.75045648 84.88499722 -8.06103516 95.57617188 C-8.2989486 97.51458902 -8.54000453 99.45261972 -8.78125 101.390625 C-10.14426868 112.62663989 -11.09863626 123.83499883 -12.125 135.125 C2.725 135.125 17.575 135.125 32.875 135.125 C29.09815082 137.01342459 27.91259747 137.37451551 23.9387207 137.36791992 C22.96123367 137.37099655 21.98374664 137.37407318 20.97663879 137.37724304 C19.9286058 137.37005753 18.88057281 137.36287201 17.80078125 137.35546875 C16.72120651 137.35501053 15.64163177 137.35455231 14.52934265 137.3540802 C12.25058898 137.3510616 9.9718373 137.34318704 7.69311523 137.33081055 C4.19051882 137.31251577 0.68818615 137.31030116 -2.81445312 137.31054688 C-5.02604397 137.3056331 -7.23763301 137.29980539 -9.44921875 137.29296875 C-10.50332443 137.29185593 -11.55743011 137.2907431 -12.64347839 137.28959656 C-13.61150894 137.28321671 -14.57953949 137.27683685 -15.5769043 137.27026367 C-16.4330986 137.26645187 -17.28929291 137.26264008 -18.1714325 137.25871277 C-20.125 137.125 -20.125 137.125 -21.125 136.125 C-20.91587931 127.16573567 -19.55076768 118.23760378 -18.3125 109.375 C-17.94896175 106.70722933 -17.58656853 104.03933984 -17.2265625 101.37109375 C-17.13441971 100.68915451 -17.04227692 100.00721527 -16.94734192 99.30461121 C-15.96835254 92.02285121 -15.06740677 84.731848 -14.1875 77.4375 C-14.10754791 76.7754657 -14.02759583 76.1134314 -13.94522095 75.43133545 C-12.88407454 66.62491834 -11.85361117 57.81499217 -10.83203125 49.00390625 C-10.72143875 48.05036758 -10.61084625 47.09682892 -10.49690247 46.11439514 C-9.95385835 41.42851575 -9.41281215 36.74241902 -8.87524414 32.0559082 C-8.39267656 27.8568297 -7.9012902 23.65888281 -7.4017334 19.46179199 C-7.21851475 17.91465722 -7.03789474 16.3672123 -6.85998535 14.81945801 C-6.61561854 12.70404552 -6.36023516 10.59026643 -6.1015625 8.4765625 C-5.96057129 7.29143066 -5.81958008 6.10629883 -5.67431641 4.88525391 C-4.87931444 0.89045738 -4.08936968 0.16357479 0 0 Z " fill="#FB0505" transform="translate(542.125,289.875)"/>
<path d="M0 0 C1.134375 0.020625 2.26875 0.04125 3.4375 0.0625 C4.52244467 13.02069876 5.60570566 25.97903785 6.6875 38.9375 C6.76721668 39.89238815 6.84693336 40.84727631 6.9290657 41.83110046 C9.49470395 72.57005327 12.01536085 103.31186377 14.4375 134.0625 C24.3375 134.3925 34.2375 134.7225 44.4375 135.0625 C44.1075 135.7225 43.7775 136.3825 43.4375 137.0625 C38.18644558 137.08714928 32.93542455 137.10533568 27.68432617 137.11743164 C25.89655979 137.12247218 24.10879755 137.12930454 22.32104492 137.13793945 C19.75698832 137.1500173 17.19298603 137.15573094 14.62890625 137.16015625 C13.42265343 137.16789818 13.42265343 137.16789818 12.19203186 137.17579651 C10.27348285 137.17599215 8.35504632 137.12451983 6.4375 137.0625 C4.75885024 135.38385024 5.11436329 133.24388029 4.94433594 130.93432617 C4.86026993 129.82457428 4.77620392 128.71482239 4.68959045 127.57144165 C4.60124435 126.34517059 4.51289825 125.11889954 4.421875 123.85546875 C4.274394 121.89188308 4.12690853 119.92829774 3.979249 117.96472549 C3.82122827 115.85283253 3.66536282 113.74079015 3.51010132 111.62869263 C2.96622852 104.2334621 2.40703066 96.83938393 1.84765625 89.4453125 C1.79049753 88.6878303 1.73333881 87.93034809 1.67444801 87.14991188 C0.83271661 76.00953128 -0.06077185 64.87443176 -1.00390625 53.7421875 C-1.06204624 53.05454378 -1.12018623 52.36690006 -1.18008804 51.65841866 C-1.79138558 44.43262976 -2.411159 37.20760452 -3.03808594 29.9831543 C-3.24031858 27.6150788 -3.44247139 25.24699649 -3.64453125 22.87890625 C-3.7380336 21.8243222 -3.83153595 20.76973816 -3.9278717 19.68319702 C-4.98750377 7.1785114 -4.98750377 7.1785114 -4.5625 1.0625 C-3.5625 0.0625 -3.5625 0.0625 0 0 Z " fill="#F80202" transform="translate(744.5625,289.9375)"/>
<path d="M0 0 C0.74476089 0.00141495 1.48952179 0.0028299 2.2568512 0.00428772 C4.61007898 0.00983636 6.96320775 0.02237892 9.31640625 0.03515625 C10.92252466 0.0401779 12.52864457 0.04473964 14.13476562 0.04882812 C18.04951668 0.0597889 21.96419474 0.07701741 25.87890625 0.09765625 C26.1463479 7.67076737 25.42850523 14.98449389 24.45611572 22.49023438 C23.98396064 26.13770584 23.53308458 29.78785124 23.078125 33.4375 C22.98043823 34.21632538 22.88275146 34.99515076 22.78210449 35.7975769 C21.73529752 44.17128768 20.77273804 52.55432822 19.81005859 60.93804932 C18.9620792 68.30461674 18.09867115 75.66940123 17.23687744 83.03436279 C16.98986871 85.14810896 16.74344467 87.2619235 16.49749756 89.37579346 C15.70381146 96.19722032 14.90107603 103.0174769 14.08636475 109.83642578 C13.82389515 112.04521025 13.56447561 114.25435938 13.3081665 116.46386719 C12.95052813 119.54204298 12.58207884 122.61873979 12.2109375 125.6953125 C12.10589401 126.62026016 12.00085052 127.54520782 11.8926239 128.4981842 C11.78859756 129.34191086 11.68457123 130.18563751 11.57739258 131.05493164 C11.49032547 131.79127335 11.40325836 132.52761505 11.31355286 133.28627014 C10.87890625 135.09765625 10.87890625 135.09765625 8.87890625 137.09765625 C5.75390625 137.22265625 5.75390625 137.22265625 2.87890625 137.09765625 C3.42710413 126.72530963 4.3173102 116.46897738 5.62890625 106.16015625 C5.8053035 104.7412773 5.98114806 103.32232955 6.15649414 101.90332031 C6.53118146 98.87616711 6.90831426 95.84933468 7.28759766 92.82275391 C8.30935025 84.66588591 9.3156357 76.50712267 10.31640625 68.34765625 C10.41927948 67.5101886 10.52215271 66.67272095 10.62814331 65.80987549 C13.22894397 44.59320452 15.55744941 23.34639524 17.87890625 2.09765625 C6.98890625 2.09765625 -3.90109375 2.09765625 -15.12109375 2.09765625 C-15.12109375 1.76765625 -15.12109375 1.43765625 -15.12109375 1.09765625 C-10.04947925 0.26059366 -5.14345236 -0.0375178 0 0 Z " fill="#05F8F8" transform="translate(443.12109375,285.90234375)"/>
<path d="M0 0 C0.76837189 0.00141495 1.53674377 0.0028299 2.32839966 0.00428772 C4.76324489 0.00984942 7.19799544 0.02239465 9.6328125 0.03515625 C11.29166533 0.04017621 12.95051962 0.04473824 14.609375 0.04882812 C18.6588902 0.05980627 22.70833534 0.07704419 26.7578125 0.09765625 C26.26932425 11.06478136 25.28808506 21.85732761 23.7746582 32.72940063 C23.19669091 36.88544176 22.64116815 41.04451635 22.08203125 45.203125 C21.96858368 46.04272263 21.85513611 46.88232025 21.73825073 47.74736023 C20.67687383 55.62708097 19.70368603 63.51584409 18.7578125 71.41015625 C18.60094971 72.71202881 18.44408691 74.01390137 18.2824707 75.35522461 C17.55928701 81.36562876 16.84266513 87.37679407 16.13183594 93.38867188 C15.57937285 98.06026791 15.02190613 102.73124787 14.46191406 107.40194702 C14.24480298 109.22156094 14.02959206 111.04140273 13.81640625 112.86148071 C13.51771514 115.41084121 13.21262603 117.95936571 12.90625 120.5078125 C12.81991302 121.25851013 12.73357605 122.00920776 12.6446228 122.78265381 C12.04703969 127.68271113 11.0361112 132.32841189 9.7578125 137.09765625 C7.4478125 137.09765625 5.1378125 137.09765625 2.7578125 137.09765625 C3.73946168 123.23735582 5.28330944 109.48957044 7.1328125 95.72265625 C7.24241302 94.9067099 7.35201355 94.09076355 7.4649353 93.25009155 C7.68807705 91.58992916 7.91122667 89.92976782 8.13438416 88.26960754 C8.24472488 87.44844955 8.35506561 86.62729156 8.46875 85.78125 C8.57905045 84.96093796 8.68935089 84.14062592 8.80299377 83.29545593 C9.85125028 75.46609713 10.81737331 67.62810983 11.7578125 59.78515625 C11.91330566 58.48860107 12.06879883 57.1920459 12.22900391 55.85620117 C12.4715375 53.83184524 12.71387288 51.80746617 12.95578003 49.78303528 C14.00968063 40.97146346 15.08774536 32.16282854 16.16357422 23.35391235 C16.60160828 19.76712012 17.03921365 16.18027564 17.47680664 12.59342957 C17.90369497 9.09482459 18.33077145 5.59624258 18.7578125 2.09765625 C7.8678125 2.09765625 -3.0221875 2.09765625 -14.2421875 2.09765625 C-14.2421875 1.76765625 -14.2421875 1.43765625 -14.2421875 1.09765625 C-9.46939852 0.149007 -4.84752773 -0.03405796 0 0 Z " fill="#05F8F8" transform="translate(321.2421875,285.90234375)"/>
<path d="M0 0 C1.134375 0.020625 2.26875 0.04125 3.4375 0.0625 C2.67375693 9.12398075 1.6665719 18.15464498 0.625 27.1875 C0.53757538 27.94815765 0.45015076 28.70881531 0.3600769 29.49252319 C-0.9007761 40.45638191 -2.18042893 51.41804448 -3.5 62.375 C-3.57961975 63.03671204 -3.6592395 63.69842407 -3.74127197 64.38018799 C-4.73267784 72.58841254 -5.78389258 80.78698749 -6.890625 88.98046875 C-7.00358414 89.82096268 -7.11654327 90.6614566 -7.23292542 91.52742004 C-7.78033372 95.59802185 -8.33385662 99.66757729 -8.90014648 103.7355957 C-10.28306103 113.84878134 -11.07093864 123.86395217 -11.5625 134.0625 C-2.9825 134.3925 5.5975 134.7225 14.4375 135.0625 C14.1075 135.7225 13.7775 136.3825 13.4375 137.0625 C2.5475 137.0625 -8.3425 137.0625 -19.5625 137.0625 C-20.4557694 132.596153 -20.52475816 130.17727824 -19.9609375 125.796875 C-19.72419312 123.90606201 -19.72419312 123.90606201 -19.48266602 121.97705078 C-19.30095822 120.58886533 -19.11923572 119.2006818 -18.9375 117.8125 C-18.75165609 116.34499882 -18.56670085 114.87738487 -18.38256836 113.40966797 C-17.98715402 110.26387677 -17.58790532 107.11860563 -17.18603516 103.97363281 C-16.24189497 96.56400439 -15.33885341 89.14934388 -14.43551636 81.73464966 C-14.12333256 79.17382207 -13.80987292 76.6131527 -13.49633789 74.05249023 C-12.37010175 64.83380238 -11.27023922 55.61244492 -10.203125 46.38671875 C-10.09133408 45.42048584 -9.97954315 44.45425293 -9.86436462 43.45874023 C-9.32683986 38.80572038 -8.79237784 34.15237071 -8.26196289 29.49853516 C-4.89534796 0.0858833 -4.89534796 0.0858833 0 0 Z " fill="#FB0505" transform="translate(358.5625,289.9375)"/>
<path d="M0 0 C0.94875 0.04125 1.8975 0.0825 2.875 0.125 C3.08490285 7.75486673 2.26549902 15.0667118 1.265625 22.625 C1.01015139 24.6106352 0.75467941 26.59627062 0.49928379 28.58191586 C0.22969032 30.66964729 -0.04265397 32.75700282 -0.31582642 34.8442688 C-0.87974437 39.15442181 -1.43525157 43.46563148 -1.98901367 47.77709961 C-2.6253244 52.72873814 -3.26267179 57.68023865 -3.90218258 62.63146496 C-7.01850029 86.76518194 -9.784689 110.90278115 -12.125 135.125 C-3.215 135.125 5.695 135.125 14.875 135.125 C14.545 135.785 14.215 136.445 13.875 137.125 C2.655 137.125 -8.565 137.125 -20.125 137.125 C-20.125 131.59653327 -20.1034793 126.8324184 -19.42578125 121.46875 C-19.27125488 120.22182373 -19.11672852 118.97489746 -18.95751953 117.69018555 C-18.87326721 117.03158539 -18.78901489 116.37298523 -18.70220947 115.69442749 C-18.42780988 113.54924524 -18.1602036 111.40329939 -17.89404297 109.25708008 C-17.50790305 106.14844032 -17.11904304 103.0401591 -16.72802734 99.93212891 C-15.82264173 92.72724823 -14.93771164 85.51987191 -14.05615234 78.31204224 C-13.85187179 76.64421941 -13.64695529 74.97647435 -13.44140625 73.30880737 C-12.07487345 62.2208083 -10.77948623 51.12671432 -9.54296875 40.0234375 C-9.27336764 37.62018814 -9.00367398 35.21694917 -8.73388672 32.8137207 C-8.20639041 28.1127317 -7.6904299 23.41065158 -7.18017578 18.70776367 C-6.93956015 16.55642944 -6.69853253 14.40514124 -6.45703125 12.25390625 C-6.35198776 11.25696747 -6.24694427 10.26002869 -6.13871765 9.23287964 C-6.03469131 8.32273102 -5.93066498 7.4125824 -5.82348633 6.47485352 C-5.69288567 5.28135033 -5.69288567 5.28135033 -5.55964661 4.06373596 C-4.76586572 0.52308585 -3.50213072 0.14008523 0 0 Z " fill="#FB0505" transform="translate(237.125,289.875)"/>
<path d="M0 0 C0.78915298 0.00141495 1.57830597 0.0028299 2.39137268 0.00428772 C4.8872574 0.0098407 7.3830491 0.02238417 9.87890625 0.03515625 C11.5813789 0.04017734 13.28385298 0.04473918 14.98632812 0.04882812 C19.13805613 0.05979467 23.28971547 0.07702634 27.44140625 0.09765625 C26.81719915 6.19475686 25.09449426 11.64006951 23.1171875 17.42578125 C22.61032158 18.93372002 22.61032158 18.93372002 22.09321594 20.47212219 C21.36503251 22.63675262 20.63418444 24.80048813 19.90093994 26.96340942 C17.94758964 32.72663991 16.01440827 38.49664309 14.078125 44.265625 C13.68532349 45.43411484 13.29252197 46.60260468 12.88781738 47.8065033 C9.2166943 58.73708133 5.62683565 69.69310389 2.06640625 80.66015625 C1.49685889 82.41106207 0.92727908 84.16195735 0.35766602 85.9128418 C-2.11479538 93.52030159 -4.57399347 101.13175494 -7.00344849 108.75306702 C-8.02835377 111.96768889 -9.0570792 115.18108359 -10.08575439 118.39450073 C-10.79027889 120.60275046 -11.48785268 122.81311246 -12.18505859 125.02368164 C-12.60612516 126.34141094 -13.02749303 127.65904401 -13.44921875 128.9765625 C-13.9911084 130.68694702 -13.9911084 130.68694702 -14.54394531 132.43188477 C-15.55859375 135.09765625 -15.55859375 135.09765625 -17.55859375 137.09765625 C-20.68359375 137.22265625 -20.68359375 137.22265625 -23.55859375 137.09765625 C-22.29955552 129.84286679 -20.37389213 123.01635719 -17.99609375 116.0546875 C-17.64866119 115.02073853 -17.30122864 113.98678955 -16.94326782 112.92150879 C-15.82034716 109.58257766 -14.68940667 106.24642169 -13.55859375 102.91015625 C-12.00114579 98.2860829 -10.4478776 93.66060878 -8.89453125 89.03515625 C-8.51380463 87.90330399 -8.133078 86.77145172 -7.74081421 85.6053009 C-4.81491618 76.89632634 -1.97142248 68.16413722 0.81640625 59.41015625 C4.61642882 47.49378553 8.63637621 35.66230125 12.77685547 23.8605957 C13.11027199 22.9038369 13.11027199 22.9038369 13.45042419 21.92774963 C14.04744943 20.2148688 14.6484368 18.50337037 15.24975586 16.79199219 C16.81338948 11.94443965 18.10121843 7.01167826 19.44140625 2.09765625 C7.89140625 2.09765625 -3.65859375 2.09765625 -15.55859375 2.09765625 C-15.55859375 1.76765625 -15.55859375 1.43765625 -15.55859375 1.09765625 C-10.31960147 0.22499413 -5.30536522 -0.03644552 0 0 Z " fill="#04F6F6" transform="translate(821.55859375,285.90234375)"/>
<path d="M0 0 C1.4540625 0.0309375 1.4540625 0.0309375 2.9375 0.0625 C1.3526362 8.21831597 -1.26017928 15.96551638 -3.9375 23.8125 C-4.81233495 26.38980387 -5.68441251 28.96802798 -6.5546875 31.546875 C-6.77143127 32.18842529 -6.98817505 32.82997559 -7.21148682 33.4909668 C-8.50722751 37.34667518 -9.73712068 41.21592421 -10.9140625 45.109375 C-14.22634415 56.00569701 -17.94862038 66.77397336 -21.57177734 77.56982422 C-24.88140635 87.43745167 -28.18773516 97.29547159 -31.19921875 107.25878906 C-32.92717939 112.87075174 -34.8590865 118.41676361 -36.76953125 123.96875 C-37.06730469 124.84789062 -37.36507812 125.72703125 -37.671875 126.6328125 C-37.93967773 127.41414551 -38.20748047 128.19547852 -38.48339844 129.00048828 C-39.19769122 131.18691202 -39.19769122 131.18691202 -39.0625 134.0625 C-30.4825 134.3925 -21.9025 134.7225 -13.0625 135.0625 C-13.3925 135.7225 -13.7225 136.3825 -14.0625 137.0625 C-24.9525 137.0625 -35.8425 137.0625 -47.0625 137.0625 C-45.93744149 126.93697345 -45.93744149 126.93697345 -44.77490234 123.41088867 C-44.51728119 122.61522995 -44.25966003 121.81957123 -43.99423218 120.99980164 C-43.71511993 120.16842178 -43.43600769 119.33704193 -43.1484375 118.48046875 C-42.85570953 117.58620682 -42.56298157 116.69194489 -42.26138306 115.77058411 C-41.32826721 112.92761989 -40.38291029 110.08889605 -39.4375 107.25 C-38.82606089 105.38892206 -38.21537828 103.5275954 -37.60546875 101.66601562 C-34.64171457 92.6532002 -31.58816788 83.67911744 -28.4140625 74.73828125 C-26.05502525 68.08107902 -23.92562985 61.40071109 -21.98518372 54.61073303 C-19.51464541 46.02870237 -16.65457244 37.57550831 -13.8137207 29.11035156 C-12.86250559 26.27526047 -11.91628067 23.43853829 -10.97070312 20.6015625 C-10.36226489 18.78115448 -9.75355136 16.96083844 -9.14453125 15.140625 C-8.72419365 13.88128143 -8.72419365 13.88128143 -8.29536438 12.59649658 C-4.09048692 0.08347932 -4.09048692 0.08347932 0 0 Z " fill="#FC0707" transform="translate(148.0625,289.9375)"/>
<path d="M0 0 C0.66 0 1.32 0 2 0 C9.32327344 12.94650125 5.3460628 28.17054924 3.625 42.25 C3.40040917 44.13143502 3.17644703 46.0129452 2.953125 47.89453125 C2.51845718 51.54720874 2.07560239 55.19874434 1.62597656 58.84960938 C1.21637736 62.18222202 0.82769045 65.51603205 0.45996094 68.85351562 C0.37515472 69.59736511 0.29034851 70.3412146 0.20297241 71.10760498 C-0.02311635 73.09425555 -0.24158433 75.08176926 -0.45947266 77.06933594 C-1 80 -1 80 -3 82 C-6.125 82.125 -6.125 82.125 -9 82 C-8.4204838 71.09323138 -7.46843915 60.28310103 -6.1875 49.4375 C-6.01256403 47.93059792 -5.83776183 46.4236803 -5.66308594 44.91674805 C-3.91413875 29.92691982 -1.98386904 14.96035006 0 0 Z " fill="#03F9F9" transform="translate(391,341)"/>
<path d="M0 0 C3.09605856 1.54802928 3.88432165 3.89208241 5.17822266 7.02001953 C6.13953691 10.5059975 6.02742724 13.16460219 5.73046875 16.765625 C5.6786142 17.41473846 5.62675964 18.06385193 5.57333374 18.7326355 C4.92221296 26.54666679 4.0368268 34.33786913 3.125 42.125 C3.0372934 42.88270691 2.94958679 43.64041382 2.85922241 44.42108154 C1.76854663 53.83461836 0.63115884 63.24023744 -0.6875 72.625 C-0.80657715 73.4823877 -0.9256543 74.33977539 -1.04833984 75.22314453 C-1.87398438 80.87398438 -1.87398438 80.87398438 -3 82 C-5.33297433 82.04092937 -7.66705225 82.04241723 -10 82 C-9.25505947 71.47688809 -7.97772012 61.02916611 -6.6875 50.5625 C-6.57806061 49.66846466 -6.46862122 48.77442932 -6.35586548 47.853302 C-4.3991674 31.87879819 -2.27982784 15.93172314 0 0 Z " fill="#03FAFA" transform="translate(270,341)"/>
<path d="M0 0 C0.33 0 0.66 0 1 0 C0.3751723 6.47220059 -0.32613686 12.92939264 -1.12109375 19.3828125 C-1.22591568 20.24075409 -1.33073761 21.09869568 -1.43873596 21.9826355 C-1.77063614 24.69688315 -2.1040626 27.41094081 -2.4375 30.125 C-2.65699662 31.91925914 -2.87639829 33.71352991 -3.09570312 35.5078125 C-3.31246474 37.27865015 -3.5292613 39.04948352 -3.74609375 40.8203125 C-3.85174652 41.68448792 -3.95739929 42.54866333 -4.06625366 43.43902588 C-4.56738343 47.52577129 -5.07612556 51.61120519 -5.60595703 55.69433594 C-5.74663353 56.78716385 -5.74663353 56.78716385 -5.89015198 57.90206909 C-6.14181881 59.85023633 -6.39706296 61.79794051 -6.65258789 63.74560547 C-7.08845714 67.28314433 -7.08845714 67.28314433 -7 72 C6.365 72.495 6.365 72.495 20 73 C19.67 73.66 19.34 74.32 19 75 C7.78 75 -3.44 75 -15 75 C-15 61.49430277 -15 61.49430277 -14.23046875 55.34765625 C-14.10966446 54.35864571 -14.10966446 54.35864571 -13.98641968 53.34965515 C-13.72805572 51.25284926 -13.4587984 49.15766861 -13.1875 47.0625 C-13.00168571 45.60256273 -12.81605924 44.14260154 -12.63061523 42.68261719 C-12.35238158 40.50030861 -12.07258666 38.31824672 -11.78852844 36.13668823 C-11.23433916 31.88006569 -10.72167439 27.62131698 -10.2421875 23.35546875 C-10.01645494 21.48687872 -9.78996236 19.61838025 -9.5625 17.75 C-9.47701904 16.91863525 -9.39153809 16.08727051 -9.3034668 15.23071289 C-8.61476751 9.92262066 -7.24597013 7.54601238 -3 4 C-1.99426222 2.67098936 -0.99204592 1.33926199 0 0 Z " fill="#FA0505" transform="translate(296,352)"/>
<path d="M0 0 C-0.63624728 9.42202824 -1.58783624 18.78710517 -2.67456055 28.1652832 C-2.93672333 30.43078836 -3.19421161 32.69679014 -3.45117188 34.96289062 C-4.35937349 42.89598485 -5.36435984 50.79039527 -6.63500977 58.67602539 C-7.08359083 62.76126363 -7 66.89020725 -7 71 C5.87 71.495 5.87 71.495 19 72 C18.67 72.66 18.34 73.32 18 74 C13.31860746 74.02465288 8.63725241 74.04283739 3.95581055 74.05493164 C2.36205386 74.05997157 0.76830181 74.0668035 -0.82543945 74.07543945 C-3.11150253 74.08751999 -5.39750467 74.09323155 -7.68359375 74.09765625 C-8.40026718 74.10281754 -9.11694061 74.10797882 -9.85533142 74.11329651 C-11.57063672 74.11349263 -13.28581266 74.06192007 -15 74 C-15.33 73.67 -15.66 73.34 -16 73 C-15.80676286 63.1902227 -14.5771112 53.37826031 -13.38037109 43.64819336 C-13.12563116 41.56765484 -12.8808317 39.48610584 -12.63671875 37.40429688 C-11.79224424 30.34579987 -10.8060599 23.31376618 -9.59375 16.30859375 C-9.37654297 15.03685303 -9.15933594 13.7651123 -8.93554688 12.45483398 C-8.02457851 9.09076475 -4.45741334 0 0 0 Z " fill="#FB0505" transform="translate(418,353)"/>
<path d="M0 0 C3 0.125 3 0.125 4 1.125 C3.78873988 11.0962905 2.36927932 21.05298922 1.125 30.9375 C0.76459694 33.82929963 0.40575967 36.72129285 0.046875 39.61328125 C-0.08704147 40.68746811 -0.08704147 40.68746811 -0.22366333 41.78335571 C-0.80256414 46.44975352 -1.34285116 51.11916236 -1.859375 55.79296875 C-1.98973145 56.95272217 -2.12008789 58.11247559 -2.25439453 59.30737305 C-2.4969401 61.47861924 -2.73256782 63.65065213 -2.96044922 65.82348633 C-3.0688916 66.77892334 -3.17733398 67.73436035 -3.2890625 68.71875 C-3.37881348 69.55083984 -3.46856445 70.38292969 -3.56103516 71.24023438 C-3.70589355 71.86220703 -3.85075195 72.48417969 -4 73.125 C-6.70879335 74.47939668 -9.00933268 74.19001451 -12 74.125 C-12.20132573 67.18951264 -11.41534945 60.53362383 -10.50390625 53.6640625 C-10.35090561 52.47831635 -10.19790497 51.29257019 -10.04026794 50.07089233 C-9.55243647 46.2966262 -9.05778114 42.52329511 -8.5625 38.75 C-8.07205035 34.98369408 -7.58305145 31.2172059 -7.09544373 27.45053101 C-6.79241424 25.11289766 -6.48755661 22.77550031 -6.18055725 20.43838501 C-5.42200999 14.61908378 -4.74440756 8.81173846 -4.25914001 2.96273804 C-3.81832831 -0.16335746 -3.25118911 0.13546621 0 0 Z " fill="#03F6F6" transform="translate(581,318.875)"/>
<path d="M0 0 C0.83354507 0.00141495 1.66709015 0.0028299 2.52589417 0.00428772 C5.16443611 0.00984457 7.80289034 0.02238885 10.44140625 0.03515625 C12.24023314 0.04017683 14.03906138 0.04473876 15.83789062 0.04882812 C20.22659583 0.05979982 24.61523621 0.07703429 29.00390625 0.09765625 C30.37536988 57.62176406 30.37536988 57.62176406 23.00390625 74.09765625 C22.01390625 74.59265625 22.01390625 74.59265625 21.00390625 75.09765625 C21.00390625 51.00765625 21.00390625 26.91765625 21.00390625 2.09765625 C8.79390625 2.09765625 -3.41609375 2.09765625 -15.99609375 2.09765625 C-15.99609375 1.76765625 -15.99609375 1.43765625 -15.99609375 1.09765625 C-10.61413389 0.19283577 -5.45140055 -0.03538817 0 0 Z " fill="#04F7F7" transform="translate(764.99609375,285.90234375)"/>
<path d="M0 0 C2.64 0 5.28 0 8 0 C7.34 6.27 6.68 12.54 6 19 C8.73152344 18.98839844 11.46304688 18.97679687 14.27734375 18.96484375 C16.91170129 18.95705358 19.54605757 18.95097659 22.18041992 18.94506836 C24.01668875 18.94002769 25.85295354 18.93319523 27.68920898 18.92456055 C30.32276401 18.91248328 32.95626616 18.90676919 35.58984375 18.90234375 C36.41588608 18.89718246 37.24192841 18.89202118 38.09300232 18.88670349 C40.06236368 18.88650795 42.03161614 18.93795848 44 19 C44.33 19.33 44.66 19.66 45 20 C44.96053746 22.41328593 44.85376107 24.78197942 44.6875 27.1875 C44.61692383 28.2549646 44.61692383 28.2549646 44.54492188 29.34399414 C43.14361054 48.85638946 43.14361054 48.85638946 41 51 C38.66702567 51.04092937 36.33294775 51.04241723 34 51 C34.09611572 50.15703369 34.19223145 49.31406738 34.29125977 48.44555664 C34.64409218 45.32818858 34.99205127 42.21032692 35.33666992 39.09204102 C35.48704858 37.74058393 35.63938809 36.38934357 35.79370117 35.03833008 C36.01471776 33.10034863 36.22818187 31.1615105 36.44140625 29.22265625 C36.57232666 28.05484619 36.70324707 26.88703613 36.83813477 25.68383789 C36.89155029 24.79817139 36.94496582 23.91250488 37 23 C34.91795642 20.91795642 30.4661444 21.74178708 27.58984375 21.68359375 C26.74780899 21.66281265 25.90577423 21.64203156 25.03822327 21.62062073 C22.33806821 21.55503188 19.63781283 21.49619724 16.9375 21.4375 C15.11131759 21.39432363 13.28514546 21.35070964 11.45898438 21.30664062 C6.97276008 21.19934106 2.4864345 21.09810034 -2 21 C-1.84661153 18.75770528 -1.6912921 16.51554259 -1.53515625 14.2734375 C-1.40572632 12.40051025 -1.40572632 12.40051025 -1.27368164 10.48974609 C-0.99612492 6.95058843 -0.58319554 3.49917323 0 0 Z " fill="#02FAFA" transform="translate(677,372)"/>
<path d="M0 0 C1.134375 0.020625 2.26875 0.04125 3.4375 0.0625 C3.29511163 2.10440981 3.14842972 4.14602045 3 6.1875 C2.91878906 7.32445312 2.83757813 8.46140625 2.75390625 9.6328125 C2.46019035 12.8165478 2.00625687 15.91760907 1.4375 19.0625 C2.06841553 19.05726318 2.69933105 19.05202637 3.34936523 19.04663086 C6.19123347 19.02592174 9.03308588 19.01285934 11.875 19 C13.36483398 18.98743164 13.36483398 18.98743164 14.88476562 18.97460938 C15.82900391 18.97138672 16.77324219 18.96816406 17.74609375 18.96484375 C19.05791626 18.95698853 19.05791626 18.95698853 20.39624023 18.94897461 C22.4375 19.0625 22.4375 19.0625 23.4375 20.0625 C23.39803746 22.47578593 23.29126107 24.84447942 23.125 27.25 C23.05442383 28.3174646 23.05442383 28.3174646 22.98242188 29.40649414 C21.58111054 48.91888946 21.58111054 48.91888946 19.4375 51.0625 C17.10452567 51.10342937 14.77044775 51.10491723 12.4375 51.0625 C12.581875 49.97453125 12.72625 48.8865625 12.875 47.765625 C13.97987955 39.13043005 14.65842589 30.7890728 14.4375 22.0625 C7.5075 21.7325 0.5775 21.4025 -6.5625 21.0625 C-6.253125 17.783125 -5.94375 14.50375 -5.625 11.125 C-5.52968994 10.08996338 -5.43437988 9.05492676 -5.33618164 7.98852539 C-5.21811157 6.77410767 -5.21811157 6.77410767 -5.09765625 5.53515625 C-5.019104 4.70250244 -4.94055176 3.86984863 -4.85961914 3.01196289 C-4.33040175 -0.46034678 -3.71403499 0.06515851 0 0 Z " fill="#08F9F9" transform="translate(687.5625,318.9375)"/>
<path d="M0 0 C0.73239395 -0.00014603 1.4647879 -0.00029205 2.21937561 -0.0004425 C4.62170452 0.0002499 7.02395429 0.00801057 9.42626953 0.01586914 C11.09921222 0.01773571 12.77215545 0.01915849 14.44509888 0.02015686 C18.83448818 0.0239632 23.22384406 0.03377731 27.61322021 0.04486084 C32.09777372 0.05511554 36.58233266 0.05966316 41.06689453 0.06469727 C49.85597232 0.07540136 58.64502301 0.09245504 67.43408203 0.11352539 C67.29149534 2.61504956 67.14508709 5.11625733 66.99658203 7.61743164 C66.95726562 8.31404907 66.91794922 9.0106665 66.87744141 9.72839355 C65.72881455 28.81879288 65.72881455 28.81879288 63.43408203 31.11352539 C61.12408203 31.11352539 58.81408203 31.11352539 56.43408203 31.11352539 C57.42408203 21.54352539 58.41408203 11.97352539 59.43408203 2.11352539 C35.34408203 2.11352539 11.25408203 2.11352539 -13.56591797 2.11352539 C-13.56591797 1.78352539 -13.56591797 1.45352539 -13.56591797 1.11352539 C-8.98806624 0.22063727 -4.66085364 -0.00784655 0 0 Z " fill="#06EDED" transform="translate(667.56591796875,285.886474609375)"/>
<path d="M0 0 C-0.48210937 0.36351562 -0.96421875 0.72703125 -1.4609375 1.1015625 C-5.57832971 4.37867059 -8.08561676 6.61529867 -9 12 C-9.75734541 21.06935192 -9.75734541 21.06935192 -6 29 C-2.77894811 30.95026652 0.53584856 32.53114779 4 34 C4 34.33 4 34.66 4 35 C-7.61594942 35.62043647 -7.61594942 35.62043647 -12.625 33.375 C-17.28383551 28.71616449 -18.20859298 24.99062166 -18.4375 18.5 C-18.26132934 12.03306858 -16.95773619 8.89597372 -12.31640625 4.3515625 C-5.54787005 -1.84929002 -5.54787005 -1.84929002 0 0 Z " fill="#F80606" transform="translate(481,393)"/>
<path d="M0 0 C0.74476089 0.00141495 1.48952179 0.0028299 2.2568512 0.00428772 C4.61007898 0.00983636 6.96320775 0.02237892 9.31640625 0.03515625 C10.92252466 0.0401779 12.52864457 0.04473964 14.13476562 0.04882812 C18.04951668 0.0597889 21.96419474 0.07701741 25.87890625 0.09765625 C26.83996128 2.00449351 27.7992554 3.91221833 28.7578125 5.8203125 C29.29220947 6.88258057 29.82660645 7.94484863 30.37719727 9.03930664 C34.9575473 18.36755324 34.9575473 18.36755324 34.75390625 22.84765625 C33.78085144 25.34979718 32.70315566 27.12746689 30.87890625 29.09765625 C30.21890625 29.09765625 29.55890625 29.09765625 28.87890625 29.09765625 C25.24890625 20.51765625 21.61890625 11.93765625 17.87890625 3.09765625 C6.98890625 2.76765625 -3.90109375 2.43765625 -15.12109375 2.09765625 C-15.12109375 1.76765625 -15.12109375 1.43765625 -15.12109375 1.09765625 C-10.04947925 0.26059366 -5.14345236 -0.0375178 0 0 Z " fill="#08F2F2" transform="translate(379.12109375,285.90234375)"/>
<path d="M0 0 C0.76837189 0.00141495 1.53674377 0.0028299 2.32839966 0.00428772 C4.76324489 0.00984942 7.19799544 0.02239465 9.6328125 0.03515625 C11.29166533 0.04017621 12.95051962 0.04473824 14.609375 0.04882812 C18.6588902 0.05980627 22.70833534 0.07704419 26.7578125 0.09765625 C27.71690801 2.3264977 28.67511087 4.55571593 29.6328125 6.78515625 C29.90222656 7.41099609 30.17164063 8.03683594 30.44921875 8.68164062 C31.22342666 10.48497856 31.99074414 12.29126988 32.7578125 14.09765625 C33.15484375 15 33.551875 15.90234375 33.9609375 16.83203125 C35.1557479 20.2290412 34.63548607 22.64965295 33.7578125 26.09765625 C31.703125 28.3125 31.703125 28.3125 29.7578125 30.09765625 C28.18666616 26.43342085 26.62021134 22.76722004 25.05810547 19.09912109 C24.52586865 17.85117352 23.99234572 16.60377365 23.45751953 15.35693359 C22.68966381 13.56621997 21.92678965 11.77337282 21.1640625 9.98046875 C20.70322266 8.90168457 20.24238281 7.82290039 19.76757812 6.71142578 C18.7578125 4.09765625 18.7578125 4.09765625 18.7578125 2.09765625 C7.8678125 2.09765625 -3.0221875 2.09765625 -14.2421875 2.09765625 C-14.2421875 1.76765625 -14.2421875 1.43765625 -14.2421875 1.09765625 C-9.46939852 0.149007 -4.84752773 -0.03405796 0 0 Z " fill="#07F3F3" transform="translate(257.2421875,285.90234375)"/>
<path d="M0 0 C5.71752421 0.10283317 8.82217901 0.84006645 13.3125 4.375 C17.25622853 9.80692797 17.05464799 14.88963861 16.3125 21.375 C14.59998548 27.50131683 10.69764479 32.05126548 5.3125 35.375 C1.875 36.25 1.875 36.25 -0.6875 36.375 C-0.27757812 35.92769531 0.13234375 35.48039062 0.5546875 35.01953125 C1.09351563 34.41496094 1.63234375 33.81039062 2.1875 33.1875 C2.72117187 32.59582031 3.25484375 32.00414062 3.8046875 31.39453125 C7.031564 27.07252309 7.60634102 23.19902827 7.625 17.875 C7.64175781 16.7715625 7.65851563 15.668125 7.67578125 14.53125 C7.27154072 11.01913873 6.42401615 9.18371488 4.3125 6.375 C0.39197885 3.93556462 -3.12138734 2.91858484 -7.6875 2.375 C-5.04233913 -0.27016087 -3.68693485 0.04626016 0 0 Z " fill="#05F7F7" transform="translate(497.6875,387.625)"/>
<path d="M0 0 C3.96 0 7.92 0 12 0 C12.33 5.94 12.66 11.88 13 18 C26.365 18.495 26.365 18.495 40 19 C39.67 19.66 39.34 20.32 39 21 C34.17619198 21.0246519 29.35242033 21.04283693 24.52856445 21.05493164 C22.88630536 21.05997174 21.24405077 21.06680378 19.60180664 21.07543945 C17.24624521 21.08751926 14.89074291 21.09323139 12.53515625 21.09765625 C11.79660904 21.10281754 11.05806183 21.10797882 10.2971344 21.11329651 C8.53101912 21.1134925 6.76502854 21.06194719 5 21 C4 20 4 20 3.88647461 18.23413086 C3.89432983 17.11083374 3.89432983 17.11083374 3.90234375 15.96484375 C3.90717773 14.75151367 3.90717773 14.75151367 3.91210938 13.51367188 C3.92048828 12.66353516 3.92886719 11.81339844 3.9375 10.9375 C3.94201172 10.08349609 3.94652344 9.22949219 3.95117188 8.34960938 C3.96299627 6.23304337 3.98093231 4.11651315 4 2 C2.68 2 1.36 2 0 2 C0 1.34 0 0.68 0 0 Z " fill="#F90606" transform="translate(155,406)"/>
<path d="M0 0 C1.51000977 1.16503906 1.51000977 1.16503906 3 3 C3.15991211 5.38964844 3.15991211 5.38964844 2.83984375 8.359375 C2.72108887 9.52146484 2.60233398 10.68355469 2.47998047 11.88085938 C2.32065895 13.25398438 2.16061315 14.62702547 2 16 C1.82234198 17.61775773 1.64546437 19.23560129 1.46923828 20.85351562 C0.968433 25.38204802 0.4386211 29.90670361 -0.10180664 34.43066406 C-0.43843625 37.25786313 -0.7672512 40.08590313 -1.09570312 42.9140625 C-1.31202681 44.73963947 -1.52880779 46.56516232 -1.74609375 48.390625 C-1.88995766 49.63782318 -1.88995766 49.63782318 -2.03672791 50.91021729 C-3.9198187 66.45059345 -3.9198187 66.45059345 -8 70 C-7.43730076 59.2089387 -6.47488019 48.53431975 -5.125 37.8125 C-4.94741122 36.37445255 -4.77000453 34.9363826 -4.59277344 33.49829102 C-3.20463865 22.31165507 -1.67403624 11.14755951 0 0 Z " fill="#E70E0E" transform="translate(585,321)"/>
<path d="M0 0 C0.66 0 1.32 0 2 0 C2.05875981 4.12493872 2.09384938 8.24976768 2.125 12.375 C2.15013672 14.10943359 2.15013672 14.10943359 2.17578125 15.87890625 C2.2151302 22.84367123 1.7135811 29.24033792 0 36 C0.66 36 1.32 36 2 36 C2 36.66 2 37.32 2 38 C-1.63 38 -5.26 38 -9 38 C-6.24740903 25.26734457 -3.21518968 12.6235726 0 0 Z " fill="#04EAEA" transform="translate(164,340)"/>
<path d="M0 0 C2.64 0 5.28 0 8 0 C7.34 6.27 6.68 12.54 6 19 C18.54 19 31.08 19 44 19 C44 19.33 44 19.66 44 20 C28.82 20.33 13.64 20.66 -2 21 C-0.875 5.25 -0.875 5.25 0 0 Z " fill="#18FBFB" transform="translate(677,372)"/>
<path d="M0 0 C1.4540625 0.0309375 1.4540625 0.0309375 2.9375 0.0625 C2.43695412 8.83185465 0.43015452 17.18585244 -1.625 25.6875 C-1.9582763 27.08709827 -2.29096293 28.48683709 -2.62304688 29.88671875 C-3.42941468 33.2802912 -4.24371611 36.67189899 -5.0625 40.0625 C-5.3925 40.0625 -5.7225 40.0625 -6.0625 40.0625 C-6.11232839 35.79412357 -6.14842015 31.525906 -6.17236328 27.25732422 C-6.18235586 25.80840094 -6.19595453 24.35949749 -6.21337891 22.91064453 C-6.39016593 7.82135218 -6.39016593 7.82135218 -4.0625 1.0625 C-3.0625 0.0625 -3.0625 0.0625 0 0 Z " fill="#F60303" transform="translate(800.0625,289.9375)"/>
<path d="M0 0 C2.31 0 4.62 0 7 0 C6.74273307 1.89772191 6.46856661 3.79315677 6.1875 5.6875 C6.03667969 6.74324219 5.88585937 7.79898437 5.73046875 8.88671875 C4.96344637 12.15579276 4.03730067 14.33583759 2 17 C-1.1875 17.3125 -1.1875 17.3125 -4 17 C-3.58411954 10.80481527 -2.39748106 5.73310689 0 0 Z " fill="#07F3F3" transform="translate(148,406)"/>
<path d="M0 0 C0.66 0 1.32 0 2 0 C2.31403164 9.04803651 -1.33134943 14.20794943 -7 21 C-9.16617257 18.83382743 -9.6477032 17.98017505 -10 15 C-9.22729492 13.16894531 -9.22729492 13.16894531 -7.98046875 11.328125 C-7.53509766 10.66425781 -7.08972656 10.00039063 -6.63085938 9.31640625 C-6.15455078 8.63449219 -5.67824219 7.95257813 -5.1875 7.25 C-4.72279297 6.55261719 -4.25808594 5.85523438 -3.77929688 5.13671875 C-2.58157554 3.38051904 -1.29679562 1.68436782 0 0 Z " fill="#07ECEC" transform="translate(418,341)"/>
<path d="M0 0 C0.90878906 0.10699219 1.81757813 0.21398437 2.75390625 0.32421875 C1.32345047 4.21705113 -0.49287642 7.61743736 -2.68359375 11.13671875 C-3.28042969 12.11253906 -3.87726563 13.08835937 -4.4921875 14.09375 C-5.07097656 14.82980469 -5.64976562 15.56585938 -6.24609375 16.32421875 C-7.23609375 16.32421875 -8.22609375 16.32421875 -9.24609375 16.32421875 C-10.30632509 13.04768462 -10.38538727 11.65398391 -9.0234375 8.4296875 C-8.41628906 7.46675781 -7.80914062 6.50382812 -7.18359375 5.51171875 C-6.59449219 4.53589844 -6.00539063 3.56007813 -5.3984375 2.5546875 C-3.24609375 0.32421875 -3.24609375 0.32421875 0 0 Z " fill="#F80606" transform="translate(422.24609375,289.67578125)"/>
<path d="M0 0 C0.33 0 0.66 0 1 0 C1.13178208 8.67879122 -1.96760474 14.08866865 -7 21 C-9.2477975 18.94766315 -10.0022242 17.99332739 -11 15 C-9.453125 12.44140625 -9.453125 12.44140625 -7.25 9.5625 C-6.53328125 8.61503906 -5.8165625 7.66757812 -5.078125 6.69140625 C-4.04945313 5.35916016 -4.04945313 5.35916016 -3 4 C-2.15695312 2.83791016 -2.15695312 2.83791016 -1.296875 1.65234375 C-0.86890625 1.10707031 -0.4409375 0.56179688 0 0 Z " fill="#07F1F1" transform="translate(297,341)"/>
<path d="M0 0 C1.36318359 0.14115234 1.36318359 0.14115234 2.75390625 0.28515625 C-4.10545527 13.13502683 -4.10545527 13.13502683 -7.24609375 17.28515625 C-7.90609375 17.28515625 -8.56609375 17.28515625 -9.24609375 17.28515625 C-10.5383052 13.32237449 -10.78673021 11.42082247 -8.96484375 7.59375 C-4.28323162 0.37626463 -4.28323162 0.37626463 0 0 Z " fill="#F80505" transform="translate(301.24609375,289.71484375)"/>
<path d="M0 0 C0.66 0.66 1.32 1.32 2 2 C1.75 5.0625 1.75 5.0625 1 8 C0.01 8.495 0.01 8.495 -1 9 C-0.67 6.03 -0.34 3.06 0 0 Z " fill="#DB2424" transform="translate(276,354)"/>
</svg>
